solid
facet normal 0.324165344238 -0.684674263 0.0
outer loop
vertex 1.93649172783 8.75 -0.315435826778
vertex 1.48004221916 8.53388977051 0.75
vertex 1.48004221916 8.53388977051 -0.75
endloop
endfacet
facet normal 0.093913763204 -0.198356603351 0.0
outer loop
vertex 1.93649172783 8.75 -0.75
vertex 1.93649172783 8.75 -0.315435826778
vertex 1.48004221916 8.53388977051 -0.75
endloop
endfacet
facet normal 0.235309123993 -0.720063328743 0.0
outer loop
vertex 1.48004221916 8.53388977051 -0.75
vertex 1.0 8.37701702118 0.75
vertex 1.0 8.37701702118 -0.75
endloop
endfacet
facet normal 0.235309123993 -0.720063328743 0.0
outer loop
vertex 1.48004221916 8.53388977051 -0.75
vertex 1.48004221916 8.53388977051 0.75
vertex 1.0 8.37701702118 0.75
endloop
endfacet
facet normal 0.230251581034 -0.486317659649 0.0
outer loop
vertex 1.93649172783 8.75 -0.315435826778
vertex 1.93649172783 8.75 0.75
vertex 1.48004221916 8.53388977051 0.75
endloop
endfacet
facet normal 0.142703533173 -0.743974238634 0.0
outer loop
vertex 1.0 8.37701702118 0.75
vertex 0.504017174244 8.2818813324 0.75
vertex 1.0 8.37701702118 -0.75
endloop
endfacet
facet normal 0.142703533173 -0.743974238634 0.0
outer loop
vertex 1.0 8.37701702118 -0.75
vertex 0.504017174244 8.2818813324 0.75
vertex 0.504017174244 8.2818813324 -0.75
endloop
endfacet
facet normal 0.0478219985962 -0.756025761366 0.0
outer loop
vertex 0.504017174244 8.2818813324 -0.75
vertex 0.504017174244 8.2818813324 0.75
vertex 0.0 8.25 0.75
endloop
endfacet
facet normal -0.0478219985962 -0.756025761366 0.0
outer loop
vertex 0.0 8.25 -0.75
vertex 0.0 8.25 0.75
vertex -0.504017174244 8.2818813324 0.75
endloop
endfacet
facet normal -0.142703533173 -0.743974238634 0.0
outer loop
vertex -0.504017174244 8.2818813324 -0.75
vertex -0.504017174244 8.2818813324 0.75
vertex -1.0 8.37701702118 0.75
endloop
endfacet
facet normal -0.235309123993 -0.720063328743 0.0
outer loop
vertex -1.0 8.37701702118 -0.75
vertex -1.0 8.37701702118 0.75
vertex -1.48004221916 8.53388977051 0.75
endloop
endfacet
facet normal -0.324165344238 -0.684674263 0.0
outer loop
vertex -1.48004221916 8.53388977051 -0.75
vertex -1.48004221916 8.53388977051 0.75
vertex -1.93649172783 8.75 0.75
endloop
endfacet
facet normal -0.324165344238 -0.684674263 0.0
outer loop
vertex -1.93649172783 8.75 -0.75
vertex -1.48004221916 8.53388977051 -0.75
vertex -1.93649172783 8.75 0.75
endloop
endfacet
facet normal -0.235309123993 -0.720063328743 0.0
outer loop
vertex -1.48004221916 8.53388977051 -0.75
vertex -1.0 8.37701702118 -0.75
vertex -1.48004221916 8.53388977051 0.75
endloop
endfacet
facet normal -0.142703533173 -0.743974238634 0.0
outer loop
vertex -1.0 8.37701702118 -0.75
vertex -0.504017174244 8.2818813324 -0.75
vertex -1.0 8.37701702118 0.75
endloop
endfacet
facet normal -0.0478219985962 -0.756025761366 0.0
outer loop
vertex -0.504017174244 8.2818813324 -0.75
vertex 0.0 8.25 -0.75
vertex -0.504017174244 8.2818813324 0.75
endloop
endfacet
facet normal 0.0478219985962 -0.756025761366 0.0
outer loop
vertex 0.0 8.25 0.75
vertex 0.0 8.25 -0.75
vertex 0.504017174244 8.2818813324 -0.75
endloop
endfacet
endsolid
